PathFileType  4	(X/Y/Z) C:\Users\antoi\Documents\MyRepositories\mobilecap\ResultsAnalysis
DataRate	CameraRate	NumFrames	NumMarkers	Units	OrigDataRate	OrigDataStartFrame	OrigNumFrames
100.0	100.0	4	55	mm	100.0	196	781
Frame#	Time	r_knee			r_shank_antsup			r_ankle			r_calc			r_5meta			r_toe			L_knee			L_shank_antsup			L_ankle			L_calc			L_5meta			L_toe			r_mknee			r_mankle			L_mknee			L_mankle			r_sh2			r_sh3			r_sh4			L_sh2			L_sh3			r_thigh1			r_thigh2			r_thigh3			r_thigh4			r_thigh5			L_thigh1			L_thigh2			L_thigh3			L_thigh4			r.ASIS			r.PSIS			L.ASIS			L.PSIS			C7			R_Shoulder			L_Shoulder			R_Sternum			L_Sternum			R_humerus			R_elbow_med			R_elbow_lat			R_forearm			R_wrist_radius			R_wrist_ulna			L_humerus			L_elbow_med			L_elbow_lat			L_forearm			L_wrist_radius			L_wrist_ulna			R_HJC			L_HJC			R_HJC_reg			L_HJC_reg			
		X1	Y1	Z1	X2	Y2	Z2	X3	Y3	Z3	X4	Y4	Z4	X5	Y5	Z5	X6	Y6	Z6	X7	Y7	Z7	X8	Y8	Z8	X9	Y9	Z9	X10	Y10	Z10	X11	Y11	Z11	X12	Y12	Z12	X13	Y13	Z13	X14	Y14	Z14	X15	Y15	Z15	X16	Y16	Z16	X17	Y17	Z17	X18	Y18	Z18	X19	Y19	Z19	X20	Y20	Z20	X21	Y21	Z21	X22	Y22	Z22	X23	Y23	Z23	X24	Y24	Z24	X25	Y25	Z25	X26	Y26	Z26	X27	Y27	Z27	X28	Y28	Z28	X29	Y29	Z29	X30	Y30	Z30	X31	Y31	Z31	X32	Y32	Z32	X33	Y33	Z33	X34	Y34	Z34	X35	Y35	Z35	X36	Y36	Z36	X37	Y37	Z37	X38	Y38	Z38	X39	Y39	Z39	X40	Y40	Z40	X41	Y41	Z41	X42	Y42	Z42	X43	Y43	Z43	X44	Y44	Z44	X45	Y45	Z45	X46	Y46	Z46	X47	Y47	Z47	X48	Y48	Z48	X49	Y49	Z49	X50	Y50	Z50	X51	Y51	Z51	X52	Y52	Z52	X53	Y53	Z53	X54	Y54	Z54	X55	Y55	Z55	

196	1.95000000	-260.37026	471.87304	-727.58068	-255.27702	399.99187	-699.44828	-273.55490	92.59883	-719.21787	-340.07364	52.62953	-757.64767	-170.39127	44.08912	-687.27085	-128.15674	62.98671	-743.51089	-283.22611	456.95706	-1058.87518	-264.60748	402.89138	-1071.58605	-283.42094	92.15587	-1080.84079	-348.81815	55.39946	-1032.76672	-191.77086	40.23188	-1116.02998	-139.28683	62.41028	-1063.88945	-255.92830	454.32910	-843.50494	-264.86708	94.50151	-799.69339	-257.85320	443.46808	-955.23948	-264.15546	97.44955	-998.44918	-256.46998	289.95899	-690.38378	-329.73074	400.75686	-713.79936	-335.93295	282.29944	-708.06186	-352.74167	408.20187	-1084.91869	-344.77353	287.41371	-1098.25863	-168.36510	773.04022	-753.68588	-171.35098	662.07184	-739.20732	-221.62814	646.82527	-696.74015	-264.75244	784.02501	-698.58391	-273.45978	665.31244	-699.97422	-177.13929	735.73642	-1064.50274	-190.73526	595.38533	-1062.77895	-292.86157	743.42109	-1091.38024	-296.45409	601.86383	-1082.20530	-172.88707	920.72893	-771.35674	-353.28227	935.14185	-854.92605	-160.81537	901.86707	-1030.00996	-351.31464	923.51079	-962.52193	-336.61568	1388.18962	-905.34964	-270.71959	1349.32853	-746.61159	-265.15195	1347.36173	-1071.23955	-206.87010	1325.35159	-885.30904	-208.05248	1325.22884	-928.41603	-245.57307	1109.64020	-666.58366	-278.40698	1005.37188	-720.14191	-273.31595	1024.95315	-651.59775	-219.20903	918.61129	-619.58911	-191.56433	801.77235	-605.69997	-234.35989	794.78407	-601.84056	-218.09236	1219.71531	-1118.79547	-242.17183	1008.75746	-1072.81972	-247.12952	1015.60452	-1133.00724	-200.18553	924.91616	-1172.27024	-176.22118	799.92210	-1175.31486	-211.61282	789.66743	-1175.79283	-238.47594	844.14118	-798.03209	-226.59396	832.05100	-997.60584	-234.03475	840.51473	-800.72834	-230.91990	822.10224	-971.05744	
197	1.96000000	-260.51482	472.17909	-727.53950	-255.30520	399.98858	-699.47440	-273.55210	92.57426	-719.21182	-340.06284	52.64117	-757.64252	-170.35482	44.06189	-687.29572	-128.15273	62.97131	-743.50611	-283.21798	456.95059	-1058.86468	-264.60555	402.91565	-1071.59011	-283.39878	92.19478	-1080.84284	-348.81248	55.39729	-1032.77466	-191.75233	40.24087	-1116.06220	-139.26718	62.40077	-1063.88751	-255.89412	454.37609	-843.52642	-264.86585	94.49871	-799.70645	-257.89162	443.44254	-955.24925	-264.14437	97.44612	-998.45112	-256.48005	289.96757	-690.38231	-329.74600	400.78873	-713.85179	-335.91045	282.29837	-708.05468	-352.73274	408.20832	-1084.92823	-344.75641	287.39729	-1098.22978	-168.33275	773.04199	-753.63555	-171.39180	662.17018	-739.18442	-221.52935	646.88793	-696.69492	-264.58178	784.13595	-698.54178	-273.38458	665.40096	-699.92440	-177.13311	735.73885	-1064.49824	-190.71928	595.37759	-1062.77206	-292.83725	743.40336	-1091.36262	-296.44267	601.86493	-1082.16952	-172.84095	920.71925	-771.31776	-353.32104	935.18216	-854.93253	-160.79812	901.86309	-1030.00889	-351.29633	923.51084	-962.52568	-336.56809	1388.20174	-905.29537	-270.97989	1349.05796	-746.46163	-265.07292	1347.34630	-1071.12206	-206.82259	1325.32638	-885.28009	-208.00623	1325.21413	-928.40957	-245.54192	1109.63159	-666.57076	-278.35607	1005.35513	-720.20820	-273.31995	1024.90778	-651.61012	-219.19983	918.57160	-619.67391	-191.59103	801.72376	-605.77812	-234.38347	794.74232	-601.96327	-218.02577	1219.70253	-1118.74423	-242.05334	1008.79966	-1072.78019	-247.06598	1015.63128	-1133.03039	-200.11465	924.94076	-1172.31432	-176.08177	799.84662	-1175.16027	-211.57566	789.66603	-1175.79954	-238.47995	844.14826	-798.02144	-226.58950	832.05098	-997.59425	-234.09394	840.55760	-800.70784	-230.88836	822.07918	-971.05195	
198	1.97000000	-260.46745	472.05942	-727.55617	-255.31806	399.98508	-699.47698	-273.52838	92.56189	-719.15323	-340.06026	52.64103	-757.66273	-170.38644	44.11052	-687.22494	-128.14817	62.96246	-743.52267	-283.20929	456.94747	-1058.87079	-264.60130	402.94972	-1071.64561	-283.39339	92.18036	-1080.81049	-348.81018	55.39076	-1032.77763	-191.77271	40.26264	-1116.08561	-139.25887	62.40224	-1063.90491	-255.82376	454.40230	-843.50921	-264.86922	94.48664	-799.69734	-257.97797	443.32269	-955.27824	-264.12855	97.46137	-998.45800	-256.48686	289.96470	-690.38015	-329.75704	400.81086	-713.87650	-335.87341	282.33384	-708.01669	-352.72715	408.20163	-1084.92234	-344.75184	287.39954	-1098.19594	-168.31642	773.03772	-753.62178	-171.37899	662.17232	-739.19707	-221.47110	646.92084	-696.67960	-264.56888	784.09257	-698.53165	-273.33815	665.45075	-699.89333	-177.12361	735.74646	-1064.49101	-190.70063	595.36888	-1062.76663	-292.81360	743.38626	-1091.35802	-296.43222	601.85643	-1082.11117	-172.82075	920.71255	-771.28938	-353.26492	935.23649	-854.93597	-160.78127	901.85909	-1030.01325	-351.28450	923.51202	-962.53304	-336.55557	1388.23395	-905.31163	-271.02270	1348.81929	-746.45036	-265.06964	1347.31434	-1070.84977	-206.76441	1325.30019	-885.28548	-207.94938	1325.20389	-928.43193	-245.51757	1109.61251	-666.56836	-278.35539	1005.34643	-720.21406	-273.35184	1024.89817	-651.65258	-219.16789	918.50100	-619.69568	-191.58320	801.71042	-605.83332	-234.42292	794.72781	-602.02706	-217.95452	1219.69196	-1118.73092	-241.89304	1008.87045	-1072.74242	-247.01298	1015.63000	-1133.04073	-200.02902	924.95836	-1172.36839	-175.99603	799.78078	-1175.06422	-211.52901	789.65550	-1175.79762	-238.46945	844.16113	-798.01383	-226.57939	832.05082	-997.58587	-234.08565	840.63433	-800.62761	-230.95011	822.07108	-970.98528	
199	1.98000000	-259.97554	471.06664	-727.69911	-255.27913	399.99927	-699.43944	-273.50961	92.58003	-719.11668	-340.06604	52.63013	-757.68237	-170.43969	44.17023	-687.14748	-128.14214	62.95376	-743.54368	-283.20318	456.93331	-1058.86717	-264.60022	402.94730	-1071.65515	-283.39830	92.11320	-1080.75987	-348.81269	55.38030	-1032.77950	-191.78433	40.25438	-1116.09360	-139.31721	62.39466	-1063.95640	-255.72049	454.36290	-843.40192	-264.88057	94.47000	-799.69168	-258.00874	443.19681	-955.31203	-264.12111	97.47360	-998.45926	-256.49347	289.96709	-690.37165	-329.74659	400.78969	-713.83076	-335.84106	282.39648	-707.96028	-352.72727	408.15942	-1084.86042	-344.76647	287.41724	-1098.20814	-168.31121	773.02899	-753.62832	-171.32647	662.11177	-739.19428	-221.45840	646.89219	-696.66552	-264.67729	784.05936	-698.55507	-273.37070	665.38903	-699.94063	-177.11727	735.74933	-1064.48454	-190.68633	595.36617	-1062.77769	-292.78687	743.36859	-1091.36356	-296.41553	601.83441	-1082.11161	-172.84034	920.73670	-771.32633	-353.20291	935.24678	-854.93530	-160.75708	901.85676	-1030.02197	-351.24493	923.48778	-962.48187	-336.51420	1388.24938	-905.28697	-270.61893	1348.87806	-746.64951	-265.02523	1347.31636	-1070.77150	-206.68417	1325.27042	-885.28443	-207.88401	1325.19988	-928.44890	-245.53094	1109.58514	-666.59090	-278.36501	1005.33318	-720.21981	-273.35748	1024.89291	-651.72385	-219.17651	918.45792	-619.69785	-191.59344	801.68900	-605.88379	-234.42505	794.70296	-602.10034	-217.88933	1219.71592	-1118.76829	-241.83065	1008.90295	-1072.75167	-246.95626	1015.61169	-1133.03522	-199.95348	924.97173	-1172.40049	-175.89650	799.72640	-1174.94721	-211.45802	789.66645	-1175.83906	-238.43022	844.17903	-798.00342	-226.55182	832.04293	-997.57459	-234.06244	840.69672	-800.62055	-230.96133	822.07262	-970.95620	
